<svg width="48" height="48" viewBox="0 0 48 48" fill="none" xmlns="http://www.w3.org/2000/svg">
<path d="M0 36.9231H11.3846V11.3846H36.9231V0H5.69231C1.89744 0 0 1.79487 0 5.38462" fill="#008080"/>
<path d="M36.6152 0.000244141V11.6926H47.9998V5.38486C47.9998 1.79512 46.205 0.000244141 42.6152 0.000244141" fill="#004747"/>
<path d="M36.6152 11.3848H47.9998V36.6155H36.6152" fill="#008080"/>
<path d="M0 36.6152V42.6152C0 46.205 1.79487 47.9998 5.38462 47.9998H11.6923V36.6152" fill="#05ACAC"/>
<path d="M11.3848 36.6152H36.6155V47.9998H11.3848" fill="#008080"/>
<path d="M36.6152 47.9998V36.6152H47.9998" fill="#005656"/>
<path d="M16 19.8466C16.1606 19.2298 16.5148 18.6658 17.0223 18.2187C17.5299 17.7716 18.1705 17.4594 18.8712 17.3176C19.572 17.1758 20.3048 17.21 20.9863 17.4164C21.6677 17.6229 22.2706 17.9932 22.7262 18.4853C23.1819 18.9774 23.4721 19.5716 23.5638 20.2002C23.6555 20.8288 23.545 21.4667 23.245 22.0412C22.9449 22.6158 22.4673 23.104 21.8665 23.4504C21.2656 23.7967 20.5657 23.9873 19.8462 24.0005M19.8462 24.0005H18.4615M19.8462 24.0005C20.5638 24.0205 21.2616 24.217 21.8606 24.5675C22.4596 24.9181 22.936 25.4087 23.2357 25.984C23.5355 26.5592 23.6467 27.1961 23.5567 27.8226C23.4668 28.449 23.1793 29.04 22.7268 29.5287C22.2743 30.0174 21.6749 30.3843 20.9963 30.5878C20.3177 30.7914 19.5871 30.8234 18.8872 30.6804C18.1872 30.5374 17.5458 30.225 17.0356 29.7786C16.5253 29.3321 16.1666 28.7695 16 28.1543M26.1538 20.1543L30.3077 17.2312H30.9231V16.1543V32.0005" stroke="#008080" stroke-width="3" stroke-linejoin="bevel"/>
</svg>
