<svg width="167" height="23" viewBox="0 0 167 23" fill="none" xmlns="http://www.w3.org/2000/svg">
<g id="Frame 33730">
<g id="Humming BEE">
<path d="M0 17.28V0.960001H1.608V8.184H10.896V0.960001H12.528V17.28H10.896V9.504H1.608V17.28H0Z" fill="white"/>
<path d="M24.6572 12.168V4.584H26.2172V17.28H24.6572V15.12C23.8172 16.704 22.3532 17.544 20.5772 17.544C17.9372 17.544 16.4252 15.96 16.4252 13.08V4.584H17.9852V12.768C17.9852 14.808 18.8972 16.2 21.0092 16.2C23.3132 16.2 24.6572 14.088 24.6572 12.168Z" fill="white"/>
<path d="M29.9018 17.28V4.584H31.4618V6.624C32.2537 5.112 33.5977 4.32 35.2537 4.32C37.1017 4.32 38.3498 5.208 38.8778 6.84C39.6698 5.208 41.0858 4.32 42.8377 4.32C45.3577 4.32 46.8218 5.928 46.8218 8.784V17.28H45.2617V9.12C45.2617 7.056 44.4217 5.64 42.5018 5.64C40.3897 5.64 39.1418 7.776 39.1418 9.696V17.28H37.5817V9.12C37.5817 7.056 36.7418 5.64 34.8218 5.64C32.7098 5.64 31.4618 7.776 31.4618 9.696V17.28H29.9018Z" fill="white"/>
<path d="M50.5267 17.28V4.584H52.0868V6.624C52.8787 5.112 54.2227 4.32 55.8787 4.32C57.7267 4.32 58.9748 5.208 59.5028 6.84C60.2948 5.208 61.7108 4.32 63.4627 4.32C65.9827 4.32 67.4468 5.928 67.4468 8.784V17.28H65.8867V9.12C65.8867 7.056 65.0468 5.64 63.1268 5.64C61.0147 5.64 59.7668 7.776 59.7668 9.696V17.28H58.2067V9.12C58.2067 7.056 57.3668 5.64 55.4468 5.64C53.3348 5.64 52.0868 7.776 52.0868 9.696V17.28H50.5267Z" fill="white"/>
<path d="M71.1517 2.736V0H72.7118V2.736H71.1517ZM71.1517 17.28V4.584H72.7118V17.28H71.1517Z" fill="white"/>
<path d="M76.4017 17.28V4.584H77.9618V6.72C78.8258 5.16 80.2897 4.32 82.0898 4.32C84.7778 4.32 86.3138 5.928 86.3138 8.784V17.28H84.7777V9.12C84.7777 7.056 83.8177 5.64 81.6817 5.64C79.3298 5.64 77.9618 7.776 77.9618 9.696V17.28H76.4017Z" fill="white"/>
<path d="M94.4109 17.4C91.2189 17.4 89.3229 14.952 89.3229 10.872C89.3229 6.624 91.2669 4.32 94.4109 4.32C96.2829 4.32 97.6269 5.064 98.4429 6.48V4.584H100.003V17.736C100.003 21.288 97.8429 22.848 95.0109 22.848C92.1069 22.848 90.1149 21.408 89.6589 18.6H91.2189C91.5069 20.52 92.9469 21.552 95.0109 21.552C97.1229 21.552 98.4429 20.376 98.4429 17.784V15.168C97.5789 16.632 96.1869 17.4 94.4109 17.4ZM94.6749 16.056C97.1229 16.056 98.4429 14.208 98.4429 10.848C98.4429 7.584 97.0749 5.664 94.6749 5.664C92.2509 5.664 90.9069 7.512 90.9069 10.872C90.9069 14.16 92.2749 16.056 94.6749 16.056Z" fill="white"/>
<path d="M108.867 17.28V0.960001H114.267C117.507 0.960001 119.619 2.592 119.619 5.184C119.619 6.816 118.707 8.136 116.955 8.712C119.283 9.24 120.507 10.776 120.507 12.768C120.507 15.624 118.419 17.28 115.083 17.28H108.867ZM114.243 2.28H110.475V8.232H114.195C116.547 8.232 117.963 7.056 117.963 5.28C117.963 3.432 116.523 2.28 114.243 2.28ZM114.651 9.528H110.475V15.96H115.059C117.387 15.96 118.851 14.688 118.851 12.744C118.851 10.776 117.219 9.528 114.651 9.528Z" fill="white"/>
<path d="M129.703 17.28V0.960001H140.527V3.69867H129.703V8.136H140.663V10H129.703V14.5H140.527V17.28H129.703Z" fill="white"/>
<path d="M153.742 17.28V0.960001H164.566V3.69867H153.742V8.136H164.702V10H153.742V14.5H164.566V17.28H153.742Z" fill="white"/>
<path d="M127 8H143V10H127V8Z" fill="white"/>
</g>
<path id="Rectangle 3024" d="M127 7.42383H143V10.4238H127V7.42383Z" fill="white"/>
<path id="Rectangle 3025" d="M151 7.42383H167V10.4238H151V7.42383Z" fill="white"/>
</g>
</svg>
