<svg width="48" height="48" viewBox="0 0 48 48" fill="none" xmlns="http://www.w3.org/2000/svg">
<g clip-path="url(#clip0_324_441)">
<path d="M24 19.5V24H10.5C9.30653 24 8.16193 23.5259 7.31802 22.682C6.47411 21.8381 6 20.6935 6 19.5C6 18.3065 6.47411 17.1619 7.31802 16.318C8.16193 15.4741 9.30653 15 10.5 15H19.5C20.6935 15 21.8381 15.4741 22.682 16.318C23.5259 17.1619 24 18.3065 24 19.5Z" stroke="#008080" stroke-width="1.2" stroke-linecap="round" stroke-linejoin="round"/>
<path d="M24 15H19.5C18.9084 15.0025 18.3221 14.8878 17.775 14.6625C17.2279 14.4373 16.7309 14.1059 16.3125 13.6876C15.8942 13.2692 15.5628 12.7721 15.3375 12.225C15.1123 11.678 14.9976 11.0917 15 10.5C14.9976 9.9084 15.1123 9.32212 15.3375 8.77503C15.5628 8.22795 15.8942 7.73089 16.3125 7.31253C16.7309 6.89417 17.2279 6.5628 17.775 6.33753C18.3221 6.11226 18.9084 5.99756 19.5 6.00004C20.0917 5.99756 20.678 6.11226 21.225 6.33753C21.7721 6.5628 22.2692 6.89417 22.6876 7.31253C23.1059 7.73089 23.4373 8.22795 23.6625 8.77503C23.8878 9.32212 24.0025 9.9084 24 10.5V15Z" stroke="#008080" stroke-width="1.2" stroke-linecap="round" stroke-linejoin="round"/>
<path d="M28.5 24H24V10.5C24 9.30653 24.4741 8.16193 25.318 7.31802C26.1619 6.47411 27.3065 6 28.5 6C29.6935 6 30.8381 6.47411 31.682 7.31802C32.5259 8.16193 33 9.30653 33 10.5V19.5C33 20.6935 32.5259 21.8381 31.682 22.682C30.8381 23.5259 29.6935 24 28.5 24Z" stroke="#008080" stroke-width="1.2" stroke-linecap="round" stroke-linejoin="round"/>
<path d="M33 24V19.5C32.9976 18.9084 33.1123 18.3221 33.3375 17.775C33.5628 17.2279 33.8942 16.7309 34.3125 16.3125C34.7309 15.8942 35.2279 15.5628 35.775 15.3375C36.3221 15.1123 36.9084 14.9976 37.5 15C38.0917 14.9976 38.678 15.1123 39.225 15.3375C39.7721 15.5628 40.2692 15.8942 40.6876 16.3125C41.1059 16.7309 41.4373 17.2279 41.6625 17.775C41.8878 18.3221 42.0025 18.9084 42 19.5C42.0025 20.0917 41.8878 20.678 41.6625 21.225C41.4373 21.7721 41.1059 22.2692 40.6876 22.6876C40.2692 23.1059 39.7721 23.4373 39.225 23.6625C38.678 23.8878 38.0917 24.0025 37.5 24H33Z" stroke="#008080" stroke-width="1.2" stroke-linecap="round" stroke-linejoin="round"/>
<path d="M24 28.5V24H37.5C38.6935 24 39.8381 24.4741 40.682 25.318C41.5259 26.1619 42 27.3065 42 28.5C42 29.6935 41.5259 30.8381 40.682 31.682C39.8381 32.5259 38.6935 33 37.5 33H28.5C27.3065 33 26.1619 32.5259 25.318 31.682C24.4741 30.8381 24 29.6935 24 28.5Z" stroke="#008080" stroke-width="1.2" stroke-linecap="round" stroke-linejoin="round"/>
<path d="M24 33H28.5C29.0917 32.9976 29.678 33.1123 30.225 33.3375C30.7721 33.5628 31.2692 33.8942 31.6876 34.3125C32.1059 34.7309 32.4373 35.2279 32.6625 35.775C32.8878 36.3221 33.0025 36.9084 33 37.5C33.0025 38.0917 32.8878 38.678 32.6625 39.225C32.4373 39.7721 32.1059 40.2692 31.6876 40.6876C31.2692 41.1059 30.7721 41.4373 30.225 41.6625C29.678 41.8878 29.0917 42.0025 28.5 42C27.9084 42.0025 27.3221 41.8878 26.775 41.6625C26.2279 41.4373 25.7309 41.1059 25.3125 40.6876C24.8942 40.2692 24.5628 39.7721 24.3375 39.225C24.1123 38.678 23.9976 38.0917 24 37.5V33Z" stroke="#008080" stroke-width="1.2" stroke-linecap="round" stroke-linejoin="round"/>
<path d="M19.5 24H24V37.5C24 38.6935 23.5259 39.8381 22.682 40.682C21.8381 41.5259 20.6935 42 19.5 42C18.3065 42 17.1619 41.5259 16.318 40.682C15.4741 39.8381 15 38.6935 15 37.5V28.5C15 27.3065 15.4741 26.1619 16.318 25.318C17.1619 24.4741 18.3065 24 19.5 24Z" stroke="#008080" stroke-width="1.2" stroke-linecap="round" stroke-linejoin="round"/>
<path d="M15 24V28.5C15.0025 29.0917 14.8878 29.678 14.6625 30.225C14.4373 30.7721 14.1059 31.2692 13.6876 31.6876C13.2692 32.1059 12.7721 32.4373 12.225 32.6625C11.678 32.8878 11.0917 33.0025 10.5 33C9.9084 33.0025 9.32212 32.8878 8.77503 32.6625C8.22795 32.4373 7.73089 32.1059 7.31253 31.6876C6.89417 31.2692 6.5628 30.7721 6.33753 30.225C6.11226 29.678 5.99756 29.0917 6.00004 28.5C5.99756 27.9084 6.11226 27.3221 6.33753 26.775C6.5628 26.2279 6.89417 25.7309 7.31253 25.3125C7.73089 24.8942 8.22795 24.5628 8.77503 24.3375C9.32212 24.1123 9.9084 23.9976 10.5 24H15Z" stroke="#008080" stroke-width="1.2" stroke-linecap="round" stroke-linejoin="round"/>
</g>
<defs>
<clipPath id="clip0_324_441">
<rect width="48" height="48" fill="white"/>
</clipPath>
</defs>
</svg>
