<svg width="15" height="16" viewBox="0 0 15 16" fill="none" xmlns="http://www.w3.org/2000/svg">
<g id="Group 8866">
<g id="Vector">
<path d="M4.64583 1.77153C4.3994 1.77153 4.16307 1.86473 3.98881 2.03064C3.81456 2.19655 3.71667 2.42158 3.71667 2.65621C3.71667 2.89084 3.81456 3.11586 3.98881 3.28177C4.16307 3.44768 4.3994 3.54089 4.64583 3.54089C4.89226 3.54089 5.1286 3.44768 5.30285 3.28177C5.47711 3.11586 5.575 2.89084 5.575 2.65621C5.575 2.42158 5.47711 2.19655 5.30285 2.03064C5.1286 1.86473 4.89226 1.77153 4.64583 1.77153ZM0.929167 1.77153C1.5826 1.77153 2.13873 1.32893 2.59246 0.858717C2.72515 0.721208 2.87339 0.59669 3.03522 0.487671C3.50617 0.170386 4.0689 0 4.64583 0C5.22277 0 5.78549 0.170386 6.25645 0.487671C6.3831 0.572994 6.51028 0.662154 6.63842 0.751997C7.35052 1.25123 8.09266 1.77153 8.94123 1.77153H13.9375C14.1839 1.77153 14.4203 1.86473 14.5945 2.03064C14.7688 2.19655 14.8667 2.42158 14.8667 2.65621C14.8667 2.89084 14.7688 3.11586 14.5945 3.28177C14.4203 3.44768 14.1839 3.54089 13.9375 3.54089H8.94123C8.09266 3.54089 7.35052 4.06118 6.63842 4.56042C6.51028 4.65026 6.3831 4.73942 6.25645 4.82474C5.78549 5.14203 5.22277 5.31241 4.64583 5.31241C4.0689 5.31241 3.50617 5.14203 3.03522 4.82474C2.87339 4.71572 2.72514 4.59121 2.59246 4.4537C2.13873 3.98348 1.5826 3.54089 0.929167 3.54089C0.682736 3.54089 0.446399 3.44768 0.272147 3.28177C0.0978942 3.11586 0 2.89084 0 2.65621C0 2.42158 0.0978942 2.19655 0.272147 2.03064C0.446399 1.86473 0.682736 1.77153 0.929167 1.77153ZM10.2208 7.07961C9.9744 7.07961 9.73807 7.17281 9.56381 7.33872C9.38956 7.50463 9.29167 7.72965 9.29167 7.96429C9.29167 8.19892 9.38956 8.42394 9.56381 8.58985C9.73807 8.75576 9.9744 8.84897 10.2208 8.84897C10.4673 8.84897 10.7036 8.75576 10.8779 8.58985C11.0521 8.42394 11.15 8.19892 11.15 7.96429C11.15 7.72965 11.0521 7.50463 10.8779 7.33872C10.7036 7.17281 10.4673 7.07961 10.2208 7.07961ZM5.92543 7.07961C6.77401 7.07961 7.51614 6.55931 8.22824 6.06007C8.35639 5.97023 8.48357 5.88107 8.61022 5.79575C9.08117 5.47846 9.6439 5.30808 10.2208 5.30808C10.7978 5.30808 11.3605 5.47846 11.8315 5.79575C11.9933 5.90477 12.1415 6.02929 12.2742 6.1668C12.7279 6.63701 13.2841 7.07961 13.9375 7.07961C14.1839 7.07961 14.4203 7.17281 14.5945 7.33872C14.7688 7.50463 14.8667 7.72965 14.8667 7.96429C14.8667 8.19892 14.7688 8.42394 14.5945 8.58985C14.4203 8.75576 14.1839 8.84897 13.9375 8.84897C13.2841 8.84897 12.7279 9.29156 12.2742 9.76178C12.1415 9.89928 11.9933 10.0238 11.8315 10.1328C11.3605 10.4501 10.7978 10.6205 10.2208 10.6205C9.6439 10.6205 9.08117 10.4501 8.61022 10.1328C8.48357 10.0475 8.35639 9.95834 8.22824 9.8685C7.51614 9.36926 6.77401 8.84897 5.92543 8.84897H0.929167C0.682736 8.84897 0.446399 8.75576 0.272147 8.58985C0.0978942 8.42394 0 8.19892 0 7.96429C0 7.72965 0.0978942 7.50463 0.272147 7.33872C0.446399 7.17281 0.682736 7.07961 0.929167 7.07961H5.92543ZM4.64583 12.3877C4.3994 12.3877 4.16307 12.4809 3.98881 12.6468C3.81456 12.8127 3.71667 13.0377 3.71667 13.2724C3.71667 13.507 3.81456 13.732 3.98881 13.8979C4.16307 14.0638 4.3994 14.157 4.64583 14.157C4.89226 14.157 5.1286 14.0638 5.30285 13.8979C5.47711 13.732 5.575 13.507 5.575 13.2724C5.575 13.0377 5.47711 12.8127 5.30285 12.6468C5.1286 12.4809 4.89226 12.3877 4.64583 12.3877ZM0.929167 12.3877C1.5826 12.3877 2.13873 11.9451 2.59246 11.4749C2.72514 11.3374 2.87339 11.2128 3.03522 11.1038C3.50617 10.7865 4.0689 10.6162 4.64583 10.6162C5.22277 10.6162 5.78549 10.7865 6.25645 11.1038C6.3831 11.1891 6.51028 11.2783 6.63843 11.3682C7.35053 11.8674 8.09266 12.3877 8.94123 12.3877H13.9375C14.1839 12.3877 14.4203 12.4809 14.5945 12.6468C14.7688 12.8127 14.8667 13.0377 14.8667 13.2724C14.8667 13.507 14.7688 13.732 14.5945 13.8979C14.4203 14.0638 14.1839 14.157 13.9375 14.157H8.94123C8.09266 14.157 7.35052 14.6773 6.63842 15.1766C6.51027 15.2664 6.3831 15.3556 6.25645 15.4409C5.78549 15.7582 5.22277 15.9286 4.64583 15.9286C4.0689 15.9286 3.50617 15.7582 3.03522 15.4409C2.87339 15.3319 2.72515 15.2074 2.59246 15.0699C2.13873 14.5996 1.5826 14.157 0.929167 14.157C0.682736 14.157 0.446399 14.0638 0.272147 13.8979C0.0978942 13.732 0 13.507 0 13.2724C0 13.0377 0.0978942 12.8127 0.272147 12.6468C0.446399 12.4809 0.682736 12.3877 0.929167 12.3877Z" fill="white"/>
<path d="M4.64583 1.77153C4.3994 1.77153 4.16307 1.86473 3.98881 2.03064C3.81456 2.19655 3.71667 2.42158 3.71667 2.65621C3.71667 2.89084 3.81456 3.11586 3.98881 3.28177C4.16307 3.44768 4.3994 3.54089 4.64583 3.54089C4.89226 3.54089 5.1286 3.44768 5.30285 3.28177C5.47711 3.11586 5.575 2.89084 5.575 2.65621C5.575 2.42158 5.47711 2.19655 5.30285 2.03064C5.1286 1.86473 4.89226 1.77153 4.64583 1.77153ZM0.929167 1.77153C1.5826 1.77153 2.13873 1.32893 2.59246 0.858717C2.72515 0.721208 2.87339 0.59669 3.03522 0.487671C3.50617 0.170386 4.0689 0 4.64583 0C5.22277 0 5.78549 0.170386 6.25645 0.487671C6.3831 0.572994 6.51028 0.662154 6.63842 0.751997C7.35052 1.25123 8.09266 1.77153 8.94123 1.77153H13.9375C14.1839 1.77153 14.4203 1.86473 14.5945 2.03064C14.7688 2.19655 14.8667 2.42158 14.8667 2.65621C14.8667 2.89084 14.7688 3.11586 14.5945 3.28177C14.4203 3.44768 14.1839 3.54089 13.9375 3.54089H8.94123C8.09266 3.54089 7.35052 4.06118 6.63842 4.56042C6.51028 4.65026 6.3831 4.73942 6.25645 4.82474C5.78549 5.14203 5.22277 5.31241 4.64583 5.31241C4.0689 5.31241 3.50617 5.14203 3.03522 4.82474C2.87339 4.71572 2.72514 4.59121 2.59246 4.4537C2.13873 3.98348 1.5826 3.54089 0.929167 3.54089C0.682736 3.54089 0.446399 3.44768 0.272147 3.28177C0.0978942 3.11586 0 2.89084 0 2.65621C0 2.42158 0.0978942 2.19655 0.272147 2.03064C0.446399 1.86473 0.682736 1.77153 0.929167 1.77153ZM10.2208 7.07961C9.9744 7.07961 9.73807 7.17281 9.56381 7.33872C9.38956 7.50463 9.29167 7.72965 9.29167 7.96429C9.29167 8.19892 9.38956 8.42394 9.56381 8.58985C9.73807 8.75576 9.9744 8.84897 10.2208 8.84897C10.4673 8.84897 10.7036 8.75576 10.8779 8.58985C11.0521 8.42394 11.15 8.19892 11.15 7.96429C11.15 7.72965 11.0521 7.50463 10.8779 7.33872C10.7036 7.17281 10.4673 7.07961 10.2208 7.07961ZM5.92543 7.07961C6.77401 7.07961 7.51614 6.55931 8.22824 6.06007C8.35639 5.97023 8.48357 5.88107 8.61022 5.79575C9.08117 5.47846 9.6439 5.30808 10.2208 5.30808C10.7978 5.30808 11.3605 5.47846 11.8315 5.79575C11.9933 5.90477 12.1415 6.02929 12.2742 6.1668C12.7279 6.63701 13.2841 7.07961 13.9375 7.07961C14.1839 7.07961 14.4203 7.17281 14.5945 7.33872C14.7688 7.50463 14.8667 7.72965 14.8667 7.96429C14.8667 8.19892 14.7688 8.42394 14.5945 8.58985C14.4203 8.75576 14.1839 8.84897 13.9375 8.84897C13.2841 8.84897 12.7279 9.29156 12.2742 9.76178C12.1415 9.89928 11.9933 10.0238 11.8315 10.1328C11.3605 10.4501 10.7978 10.6205 10.2208 10.6205C9.6439 10.6205 9.08117 10.4501 8.61022 10.1328C8.48357 10.0475 8.35639 9.95834 8.22824 9.8685C7.51614 9.36926 6.77401 8.84897 5.92543 8.84897H0.929167C0.682736 8.84897 0.446399 8.75576 0.272147 8.58985C0.0978942 8.42394 0 8.19892 0 7.96429C0 7.72965 0.0978942 7.50463 0.272147 7.33872C0.446399 7.17281 0.682736 7.07961 0.929167 7.07961H5.92543ZM4.64583 12.3877C4.3994 12.3877 4.16307 12.4809 3.98881 12.6468C3.81456 12.8127 3.71667 13.0377 3.71667 13.2724C3.71667 13.507 3.81456 13.732 3.98881 13.8979C4.16307 14.0638 4.3994 14.157 4.64583 14.157C4.89226 14.157 5.1286 14.0638 5.30285 13.8979C5.47711 13.732 5.575 13.507 5.575 13.2724C5.575 13.0377 5.47711 12.8127 5.30285 12.6468C5.1286 12.4809 4.89226 12.3877 4.64583 12.3877ZM0.929167 12.3877C1.5826 12.3877 2.13873 11.9451 2.59246 11.4749C2.72514 11.3374 2.87339 11.2128 3.03522 11.1038C3.50617 10.7865 4.0689 10.6162 4.64583 10.6162C5.22277 10.6162 5.78549 10.7865 6.25645 11.1038C6.3831 11.1891 6.51028 11.2783 6.63843 11.3682C7.35053 11.8674 8.09266 12.3877 8.94123 12.3877H13.9375C14.1839 12.3877 14.4203 12.4809 14.5945 12.6468C14.7688 12.8127 14.8667 13.0377 14.8667 13.2724C14.8667 13.507 14.7688 13.732 14.5945 13.8979C14.4203 14.0638 14.1839 14.157 13.9375 14.157H8.94123C8.09266 14.157 7.35052 14.6773 6.63842 15.1766C6.51027 15.2664 6.3831 15.3556 6.25645 15.4409C5.78549 15.7582 5.22277 15.9286 4.64583 15.9286C4.0689 15.9286 3.50617 15.7582 3.03522 15.4409C2.87339 15.3319 2.72515 15.2074 2.59246 15.0699C2.13873 14.5996 1.5826 14.157 0.929167 14.157C0.682736 14.157 0.446399 14.0638 0.272147 13.8979C0.0978942 13.732 0 13.507 0 13.2724C0 13.0377 0.0978942 12.8127 0.272147 12.6468C0.446399 12.4809 0.682736 12.3877 0.929167 12.3877Z" stroke="white"/>
</g>
</g>
</svg>
